<?xml version="1.0" encoding="UTF-8" standalone="no"?>
<!-- Generator: Adobe Illustrator 18.1.1, SVG Export Plug-In . SVG Version: 6.00 Build 0)  -->

<svg
   xmlns:dc="http://purl.org/dc/elements/1.1/"
   xmlns:cc="http://creativecommons.org/ns#"
   xmlns:rdf="http://www.w3.org/1999/02/22-rdf-syntax-ns#"
   xmlns:svg="http://www.w3.org/2000/svg"
   xmlns="http://www.w3.org/2000/svg"
   xmlns:sodipodi="http://sodipodi.sourceforge.net/DTD/sodipodi-0.dtd"
   xmlns:inkscape="http://www.inkscape.org/namespaces/inkscape"
   version="1.1"
   id="Capa_1"
   x="0px"
   y="0px"
   viewBox="0 0 799.99998 799.99998"
   xml:space="preserve"
   inkscape:version="0.91 r13725"
   sodipodi:docname="icon.svg"
   width="800"
   height="800"
   inkscape:export-filename="C:\Me\projects\fitbit\orionis\resources\icon.png"
   inkscape:export-xdpi="9"
   inkscape:export-ydpi="9"><metadata
     id="metadata39"><rdf:RDF><cc:Work
         rdf:about=""><dc:format>image/svg+xml</dc:format><dc:type
           rdf:resource="http://purl.org/dc/dcmitype/StillImage" /><dc:title /></cc:Work></rdf:RDF></metadata><defs
     id="defs37" /><sodipodi:namedview
     pagecolor="#ffffff"
     bordercolor="#666666"
     borderopacity="1"
     objecttolerance="10"
     gridtolerance="10"
     guidetolerance="10"
     inkscape:pageopacity="0"
     inkscape:pageshadow="2"
     inkscape:window-width="1536"
     inkscape:window-height="801"
     id="namedview35"
     showgrid="false"
     inkscape:zoom="0.7525"
     inkscape:cx="400"
     inkscape:cy="400"
     inkscape:window-x="-8"
     inkscape:window-y="-8"
     inkscape:window-maximized="1"
     inkscape:current-layer="Capa_1" /><path
     d="m 743.09973,56.900141 c -6.8227,-6.82274 -17.1145,-8.793494 -25.97543,-4.97894 L 64.243358,333.00315 c -9.233799,3.97584 -14.927575,13.37669 -14.17725,23.40091 0.751469,10.02536 7.78462,18.47115 17.509104,21.02524 l 281.156768,73.83999 73.83951,281.1563 c 2.55408,9.72454 10.99867,16.75774 21.02511,17.50921 0.59134,0.0435 1.18153,0.0652 1.76715,0.0652 9.34932,0 17.89228,-5.55427 21.63246,-14.24368 L 748.07749,82.878021 c 3.81682,-8.86327 1.84493,-19.15285 -4.97776,-25.97788 z M 450.77044,654.29179 390.81537,425.99485 c -2.15947,-8.22275 -8.58184,-14.64516 -16.80453,-16.80464 L 145.71193,349.23132 681.3958,118.60218 450.77044,654.29179 Z"
     id="path3"
     inkscape:connector-curvature="0"
     style="fill:#21960b;fill-opacity:1" /><g
     id="g5"
     transform="translate(0,187.99799)" /><g
     id="g7"
     transform="translate(0,187.99799)" /><g
     id="g9"
     transform="translate(0,187.99799)" /><g
     id="g11"
     transform="translate(0,187.99799)" /><g
     id="g13"
     transform="translate(0,187.99799)" /><g
     id="g15"
     transform="translate(0,187.99799)" /><g
     id="g17"
     transform="translate(0,187.99799)" /><g
     id="g19"
     transform="translate(0,187.99799)" /><g
     id="g21"
     transform="translate(0,187.99799)" /><g
     id="g23"
     transform="translate(0,187.99799)" /><g
     id="g25"
     transform="translate(0,187.99799)" /><g
     id="g27"
     transform="translate(0,187.99799)" /><g
     id="g29"
     transform="translate(0,187.99799)" /><g
     id="g31"
     transform="translate(0,187.99799)" /><g
     id="g33"
     transform="translate(0,187.99799)" /></svg>